<svg xmlns="http://www.w3.org/2000/svg" xmlns:xlink="http://www.w3.org/1999/xlink" width="25" height="29" viewBox="0 0 25 29"><defs><path id="587ma" d="M917.44 3311.5a.68.68 0 0 0-1.37 0 .68.68 0 0 0 1.37 0zm7.48 0a.68.68 0 0 0-1.37 0c0 .37.3.68.7.68.36 0 .67-.31.67-.68zm-13.28 5.67v7.5c0 .99-.8 1.8-1.81 1.8s-1.83-.81-1.83-1.8v-7.5c0-.98.82-1.78 1.83-1.78 1 0 1.8.8 1.8 1.78zm17 10.16c0 1.07-.87 1.92-1.93 1.92h-1.33v3.96c0 1-.82 1.8-1.83 1.8-1.01 0-1.83-.8-1.83-1.8v-3.96h-2.45v3.96c0 1-.82 1.8-1.83 1.8-1 0-1.8-.8-1.8-1.8l-.03-3.96h-1.3a1.93 1.93 0 0 1-1.96-1.92v-11.61h16.3zm.06-12.24h-16.42a7.27 7.27 0 0 1 4.19-6.43l-1.26-2.29a.25.25 0 0 1 .08-.35c.13-.05.29-.01.36.1l1.28 2.31a8.92 8.92 0 0 1 7.13 0l1.28-2.3c.07-.12.23-.16.36-.1.12.06.16.22.08.34l-1.26 2.29a7.28 7.28 0 0 1 4.18 6.43zm4.3 9.58c0 .99-.83 1.8-1.84 1.8-1 0-1.8-.81-1.8-1.8v-7.5c0-1 .8-1.78 1.8-1.78a1.8 1.8 0 0 1 1.83 1.78z"/></defs><g><g transform="translate(-908 -3306)"><use fill="#fff" xlink:href="#587ma"/></g></g></svg>