<svg xmlns="http://www.w3.org/2000/svg" xmlns:xlink="http://www.w3.org/1999/xlink" width="21" height="24" viewBox="0 0 21 24"><defs><path id="doqwa" d="M606.14 3329.12c-1.3 1.9-2.6 2.83-3.87 2.83a7.2 7.2 0 0 1-2.11-.46 6.96 6.96 0 0 0-2.28-.46c-.6 0-1.32.16-2.14.47-.83.34-1.5.5-1.99.5-1.55 0-3.04-1.26-4.53-3.74A14.27 14.27 0 0 1 587 3321c0-2.2.57-3.99 1.7-5.39a5.28 5.28 0 0 1 4.28-2.08c.74 0 1.62.15 2.67.44 1.04.29 1.73.43 2.08.43.44 0 1.16-.16 2.16-.5 1-.3 1.87-.48 2.6-.48 1.2 0 2.28.32 3.21.94.53.34 1.06.83 1.57 1.44a9.43 9.43 0 0 0-1.72 1.7c-.64.9-.98 1.89-.98 2.99 0 1.18.35 2.26 1.04 3.21.7.95 1.5 1.56 2.38 1.82a14.09 14.09 0 0 1-1.85 3.6zm-4.25-18.56c-.3.72-.77 1.39-1.4 2-.54.51-1.09.86-1.63 1.03-.35.1-.86.19-1.57.25a6.39 6.39 0 0 1 1.18-3.71c.75-1.04 2.02-1.74 3.77-2.13l.07.31.02.3c0 .58-.15 1.25-.44 1.95z"/></defs><g><g transform="translate(-587 -3308)"><use fill="#fff" xlink:href="#doqwa"/></g></g></svg>