<svg xmlns="http://www.w3.org/2000/svg" xmlns:xlink="http://www.w3.org/1999/xlink" width="20" height="16" viewBox="0 0 20 16"><defs><path id="wctya" d="M790 2710.12c0-.33-.13-.67-.36-.91l-1.76-1.83a1.22 1.22 0 0 0-.88-.38c-.32 0-.64.13-.87.38l-8.47 8.85-3.8-3.98a1.23 1.23 0 0 0-.87-.38c-.32 0-.65.14-.88.38l-1.75 1.83a1.34 1.34 0 0 0 0 1.84l4.67 4.87 1.75 1.83c.24.25.56.38.88.38.32 0 .65-.13.88-.38l1.75-1.83 9.35-9.75c.23-.24.36-.58.36-.92z"/></defs><g><g transform="translate(-770 -2707)"><use fill="#fff" xlink:href="#wctya"/></g></g></svg>